<svg xmlns="http://www.w3.org/2000/svg" viewBox="0 0 322.4 213.18"><title>Dotgo</title><rect x="172.48" width="149.92" height="213" fill="#fff"/><rect y="0.18" width="173" height="213" fill="#ffdb57"/><path d="M212,172.55H196.26V132H212c10,0,13.7,5.06,13.7,10.54V162C225.68,167.43,222,172.55,212,172.55ZM216.54,145c0-3.16-1.09-4.93-5.66-4.93H205.4v24.36h5.48c4.57,0,5.66-1.77,5.66-4.93Z" transform="translate(-167.31 -79.82)" fill="#313131"/><path d="M263.19,160.73c0,6.16-4.26,12.43-15.71,12.43s-15.72-6.27-15.72-12.43V143.81c0-6.16,4.27-12.43,15.72-12.43s15.71,6.27,15.71,12.43Zm-9.14-16.13c0-3.17-2-5.12-6.57-5.12s-6.58,2-6.58,5.12v15.34c0,3.17,2,5.12,6.58,5.12s6.57-1.95,6.57-5.12Z" transform="translate(-167.31 -79.82)" fill="#313131"/><path d="M287,140.09v32.46h-9.14V140.09H267V132H297.9v8.1Z" transform="translate(-167.31 -79.82)" fill="#313131"/><path d="M302.58,172.55V162.44h8.77v10.11Z" transform="translate(-167.31 -79.82)" fill="#313131"/><path d="M219.16,249.58c-14.8,0-22.29-7.58-22.29-18.63v-25.4c0-11.23,7.49-18.63,22.29-18.63a107.22,107.22,0,0,1,19.45,1.92l-1.64,12a141.55,141.55,0,0,0-17.81-1.47c-6.85,0-8.59,3.57-8.59,8.31v20.92c0,4.75,1.74,8.68,8.59,8.68a54.58,54.58,0,0,0,8.13-.55V218.07h12.88v28.59A77.62,77.62,0,0,1,219.16,249.58Z" transform="translate(-167.31 -79.82)" fill="#313131"/><path d="M249.3,231.59V221.26c0-9.13,4.3-18,20.1-18s20.09,8.86,20.09,18v10.33c0,9.13-4.29,18-20.09,18S249.3,240.72,249.3,231.59Zm27,.36v-11c0-4.2-2.19-6.58-6.94-6.58s-6.94,2.38-6.94,6.58v11c0,4.2,2.19,6.58,6.94,6.58S276.34,236.15,276.34,232Z" transform="translate(-167.31 -79.82)" fill="#313131"/><path d="M353.56,165.47a17.47,17.47,0,0,1-5.64-.91l.33-1.35a20.23,20.23,0,0,0,5.37.76c3.42,0,4.35-1,4.35-3.37,0-2.92,0-3.23-4.47-4.19-4.83-1-5.37-1.87-5.37-5.67,0-3.08,1.2-4.7,6.21-4.7a22.23,22.23,0,0,1,5.16.65l-.21,1.42a25.44,25.44,0,0,0-4.89-.57c-4,0-4.5.91-4.5,3.26,0,3.06.09,3.2,4.29,4.19,5.25,1.25,5.55,2,5.55,5.52C359.74,163.6,358.63,165.47,353.56,165.47Z" transform="translate(-167.31 -79.82)" fill="#313131"/><path d="M370.3,165.47c-4.11,0-5.67-2.18-5.67-5v-4.33c0-2.84,1.56-5,5.67-5s5.67,2.18,5.67,5v4.33C376,163.29,374.41,165.47,370.3,165.47Zm3.93-9.4c0-2.32-1.2-3.49-3.93-3.49s-3.93,1.17-3.93,3.49v4.44c0,2.33,1.2,3.49,3.93,3.49s3.93-1.16,3.93-3.49Z" transform="translate(-167.31 -79.82)" fill="#313131"/><path d="M382,160.77c0,2.46,1.05,3.23,3.78,3.23a19.61,19.61,0,0,0,3.12-.29l.21,1.36a14.77,14.77,0,0,1-3.33.4c-4.11,0-5.52-1.78-5.52-4.76v-4.84c0-3,1.41-4.76,5.52-4.76a14.77,14.77,0,0,1,3.33.4l-.21,1.36a19.61,19.61,0,0,0-3.12-.29c-2.73,0-3.78.77-3.78,3.23Z" transform="translate(-167.31 -79.82)" fill="#313131"/><path d="M394,148.79v-3h1.74v3Zm0,16.4V151.4h1.74v13.79Z" transform="translate(-167.31 -79.82)" fill="#313131"/><path d="M411.43,165.19h-1.5l-.12-1.08a9.65,9.65,0,0,1-4.95,1.36c-2.58,0-3.78-1.39-3.78-3.85,0-2.92,1.41-3.82,4.29-3.82h4.32v-2.69c0-1.9-1.05-2.53-3.45-2.53a23.52,23.52,0,0,0-4.32.46l-.27-1.39a19.75,19.75,0,0,1,4.5-.54c3.78,0,5.28,1.42,5.28,4Zm-1.74-5.92h-4.26c-2,0-2.61.56-2.61,2.38,0,1.61.36,2.35,2.4,2.35a8.54,8.54,0,0,0,4.47-1.42Z" transform="translate(-167.31 -79.82)" fill="#313131"/><path d="M417.07,165.19V145.76l1.74-.23v19.66Z" transform="translate(-167.31 -79.82)" fill="#313131"/><path d="M348.37,201.19V182.33h7.5c2.7,0,4.29,1.21,4.29,3.71v2.26a3,3,0,0,1-2.28,3.06,3.32,3.32,0,0,1,2.91,3.51v2.47c0,2.6-2,3.85-4.59,3.85Zm10-15.38c0-1.3-.78-2-2.49-2h-5.76v7h5.16c2.19,0,3.09-1.07,3.09-2.57Zm.63,9.12c0-1.59-1-2.66-3.3-2.66h-5.58v7.44h6.09c1.89,0,2.79-.87,2.79-2.37Z" transform="translate(-167.31 -79.82)" fill="#313131"/><path d="M372.19,188.73a32.55,32.55,0,0,0-4.62,2.55v9.91h-1.74V187.4h1.56l.09,2.09a25.38,25.38,0,0,1,4.5-2.38Z" transform="translate(-167.31 -79.82)" fill="#313131"/><path d="M385.78,201.19h-1.5l-.12-1.08a9.65,9.65,0,0,1-5,1.36c-2.58,0-3.78-1.39-3.78-3.85,0-2.92,1.41-3.82,4.29-3.82H384v-2.69c0-1.9-1.05-2.53-3.45-2.53a23.52,23.52,0,0,0-4.32.46l-.27-1.39a19.75,19.75,0,0,1,4.5-.54c3.78,0,5.28,1.42,5.28,4ZM384,195.27h-4.26c-2,0-2.61.56-2.61,2.38,0,1.61.36,2.35,2.4,2.35a8.54,8.54,0,0,0,4.47-1.42Z" transform="translate(-167.31 -79.82)" fill="#313131"/><path d="M400.36,201.19V190c0-1-.57-1.39-1.59-1.39a16,16,0,0,0-5.61,1.59v11h-1.74V187.4H393l.12,1.24a17.09,17.09,0,0,1,5.94-1.53c2.28,0,3.09,1.22,3.09,3.12v11Z" transform="translate(-167.31 -79.82)" fill="#313131"/><path d="M407.44,191.36c0-2.52,1.2-4.25,4.5-4.25a22.54,22.54,0,0,1,4.5.46v-5.81l1.74-.23v19.66h-1.59l-.09-1.31a8.72,8.72,0,0,1-4.92,1.59c-2.85,0-4.14-1.33-4.14-3.82Zm9-2.29a23.48,23.48,0,0,0-4.56-.49c-1.92,0-2.7.91-2.7,2.78v6.29c0,1.58.54,2.35,2.52,2.35a7.75,7.75,0,0,0,4.74-1.76Z" transform="translate(-167.31 -79.82)" fill="#313131"/><path d="M424.12,184.79v-3h1.74v3Zm0,16.4V187.4h1.74v13.79Z" transform="translate(-167.31 -79.82)" fill="#313131"/><path d="M440.74,201.19V190c0-1-.57-1.39-1.59-1.39a16,16,0,0,0-5.61,1.59v11H431.8V187.4h1.53l.12,1.24a17.09,17.09,0,0,1,5.94-1.53c2.28,0,3.09,1.22,3.09,3.12v11Z" transform="translate(-167.31 -79.82)" fill="#313131"/><path d="M453.28,197a10.41,10.41,0,0,1-1.95-.17,2.27,2.27,0,0,0-1.14,1.81c0,.54.33.91,1.32,1l4.2.31c2.67.2,3.63,1.36,3.63,3.29,0,2.86-1.5,3.85-6.24,3.85a23,23,0,0,1-5.13-.68l.27-1.3a25.47,25.47,0,0,0,4.92.56c4,0,4.47-.76,4.47-2.35,0-1.36-.6-1.89-2.34-2s-2-.11-4-.25c-2.16-.17-2.88-1.22-2.88-2.44a2.82,2.82,0,0,1,1.38-2.32,4.27,4.27,0,0,1-2.16-4.13V192c0-3.12,1.47-4.85,5.61-4.85a8.73,8.73,0,0,1,2.46.29h4v1.18l-1.83.15a4.92,4.92,0,0,1,1,3.23v.17C458.89,195.24,457.12,197,453.28,197Zm0-8.44c-2.91,0-3.93.85-3.93,3.37v.28c0,2.61,1.26,3.37,3.93,3.37s3.93-.88,3.93-3.37v-.28C457.21,189.41,456.19,188.53,453.28,188.53Z" transform="translate(-167.31 -79.82)" fill="#313131"/><path d="M359.62,232.23h-9.3l-1.86,5h-1.74l7-18.86h2.61l7,18.86h-1.74Zm-8.76-1.44h8.22L355,219.29Z" transform="translate(-167.31 -79.82)" fill="#313131"/><path d="M369.22,237.19l-3.33-13.79h1.65l3,12.68,4-12.68h2.34l3.93,12.68,3-12.68h1.65l-3.33,13.79h-2.61l-3.84-12.61-3.84,12.61Z" transform="translate(-167.31 -79.82)" fill="#313131"/><path d="M399.34,237.19h-1.5l-.12-1.08a9.65,9.65,0,0,1-5,1.36c-2.58,0-3.78-1.39-3.78-3.85,0-2.92,1.41-3.82,4.29-3.82h4.32v-2.69c0-1.9-1.05-2.53-3.45-2.53a23.52,23.52,0,0,0-4.32.46l-.27-1.39a19.75,19.75,0,0,1,4.5-.54c3.78,0,5.28,1.42,5.28,4Zm-1.74-5.92h-4.26c-2,0-2.61.56-2.61,2.38,0,1.61.36,2.35,2.4,2.35a8.54,8.54,0,0,0,4.47-1.42Z" transform="translate(-167.31 -79.82)" fill="#313131"/><path d="M411.34,224.73a32.55,32.55,0,0,0-4.62,2.55v9.91H405V223.4h1.56l.09,2.09a25.38,25.38,0,0,1,4.5-2.38Z" transform="translate(-167.31 -79.82)" fill="#313131"/><path d="M420,236a20,20,0,0,0,4.62-.65l.3,1.33a17.11,17.11,0,0,1-5,.76c-4.11,0-5.43-2-5.43-5v-4.33c0-2.84,1.35-5,5.46-5s5.31,2.18,5.31,5v2.66h-9v1.72C416.17,235,417.07,236,420,236Zm-3.81-6.72h7.32v-1.24c0-2.32-.87-3.54-3.6-3.54s-3.72,1.22-3.72,3.54Z" transform="translate(-167.31 -79.82)" fill="#313131"/><path d="M439.33,237.19V226c0-1-.57-1.39-1.59-1.39a16,16,0,0,0-5.61,1.59v11h-1.74V223.4h1.53l.12,1.24a17.09,17.09,0,0,1,5.94-1.53c2.28,0,3.09,1.22,3.09,3.12v11Z" transform="translate(-167.31 -79.82)" fill="#313131"/><path d="M451.66,236a20,20,0,0,0,4.62-.65l.3,1.33a17.11,17.11,0,0,1-5,.76c-4.11,0-5.43-2-5.43-5v-4.33c0-2.84,1.35-5,5.46-5s5.31,2.18,5.31,5v2.66h-9v1.72C447.85,235,448.75,236,451.66,236Zm-3.81-6.72h7.32v-1.24c0-2.32-.87-3.54-3.6-3.54s-3.72,1.22-3.72,3.54Z" transform="translate(-167.31 -79.82)" fill="#313131"/><path d="M465.91,237.47a13,13,0,0,1-4.29-.71l.3-1.33a15,15,0,0,0,3.87.57c2.7,0,3.24-.48,3.24-2.24,0-2-.06-2.18-3.39-2.92-3.66-.82-4-1.67-4-4.19,0-2.29,1.17-3.54,4.77-3.54a17.48,17.48,0,0,1,4.14.48l-.18,1.39a24.21,24.21,0,0,0-4.08-.4c-2.55,0-2.91.63-2.91,2.13,0,1.9.12,2.09,2.82,2.75,4.29,1,4.53,1.67,4.53,4.24S469.81,237.47,465.91,237.47Z" transform="translate(-167.31 -79.82)" fill="#313131"/><path d="M479.8,237.47a13,13,0,0,1-4.29-.71l.3-1.33a15,15,0,0,0,3.87.57c2.7,0,3.24-.48,3.24-2.24,0-2-.06-2.18-3.39-2.92-3.66-.82-4-1.67-4-4.19,0-2.29,1.17-3.54,4.77-3.54a17.48,17.48,0,0,1,4.14.48L484.3,225a24.21,24.21,0,0,0-4.08-.4c-2.55,0-2.91.63-2.91,2.13,0,1.9.12,2.09,2.82,2.75,4.29,1,4.53,1.67,4.53,4.24S483.7,237.47,479.8,237.47Z" transform="translate(-167.31 -79.82)" fill="#313131"/></svg>